<svg width="1090" height="576" viewBox="0 0 1090 576" fill="none" xmlns="http://www.w3.org/2000/svg">
<path d="M109.334 387.356C169.718 387.356 218.669 338.405 218.669 278.022C218.669 217.638 169.718 168.687 109.334 168.687C48.9507 168.687 0 217.638 0 278.022C0 338.405 48.9507 387.356 109.334 387.356Z" fill="black"/>
<path d="M184.049 141.032C187.288 141.032 190.383 139.832 192.851 137.734C227.051 108.676 271.301 91.1073 319.587 91.1073C362.018 91.1073 402.323 104.4 436.24 129.57C454.179 142.883 479.341 142.775 495.509 127.369C516.288 107.571 513.692 74.9309 491.776 58.4115C441.827 20.7582 382.282 0.860764 319.583 0.860764C224.223 0.860764 139.64 47.7468 87.5889 119.651C81.1439 128.553 87.6568 141.036 98.6485 141.036L184.049 141.032Z" fill="black"/>
<path d="M713.01 190.806C694.987 173.597 666.427 174.247 649.209 192.278C640.176 201.738 623.114 223.067 593.737 259.951C547.951 317.434 471.317 413.635 441.361 437.74C412.035 461.347 376.978 483.194 319.587 483.194C262.487 483.194 211.05 458.622 175.192 419.533C172.587 416.694 168.962 415.007 165.105 415.007H86.5364C76.0114 415.007 69.4347 426.541 74.9066 435.53C125.175 518.135 216.02 573.445 319.583 573.445C405.654 573.445 460.118 538.496 497.942 508.049C532.84 479.964 593.94 404.538 664.325 316.177C685.698 289.34 707.801 261.59 714.478 254.603C731.687 236.584 731.033 208.02 713.01 190.806Z" fill="black"/>
<path d="M977.307 405.618C1037.69 405.618 1086.64 356.668 1086.64 296.284C1086.64 235.9 1037.69 186.949 977.307 186.949C916.923 186.949 867.972 235.9 867.972 296.284C867.972 356.668 916.923 405.618 977.307 405.618Z" fill="#003778"/>
<path d="M902.59 433.273C899.351 433.273 896.256 434.473 893.788 436.571C859.588 465.63 815.338 483.198 767.052 483.198C724.621 483.198 684.32 469.905 650.399 444.735C632.46 431.422 607.298 431.53 591.126 446.941C570.347 466.738 572.943 499.378 594.859 515.898C644.808 553.547 704.353 573.449 767.052 573.449C862.412 573.449 946.995 526.563 999.046 454.654C1005.49 445.752 998.978 433.269 987.987 433.269L902.59 433.273Z" fill="#003778"/>
<path d="M373.629 383.499C391.652 400.709 420.212 400.059 437.429 382.028C446.463 372.567 463.525 351.238 492.902 314.355C538.688 256.872 615.322 160.671 645.278 136.566C674.604 112.959 709.661 91.1113 767.052 91.1113C824.152 91.1113 875.589 115.683 911.447 154.772C914.052 157.612 917.677 159.299 921.533 159.299H1000.1C1010.62 159.299 1017.2 147.765 1011.73 138.775C961.46 56.1701 870.615 0.860764 767.052 0.860764C680.981 0.860764 626.517 35.8099 588.692 66.2564C553.795 94.3418 492.695 169.768 422.31 258.128C400.937 284.965 378.834 312.715 372.157 319.703C354.952 337.722 355.606 366.286 373.629 383.499Z" fill="#003778"/>
<path d="M109.405 387.632C169.827 387.632 218.81 338.536 218.81 277.976C218.81 217.416 169.827 168.32 109.405 168.32C48.9837 168.32 0 217.416 0 277.976C0 338.536 48.9837 387.632 109.405 387.632Z" fill="url(#paint0_linear_200_6786)"/>
<path d="M184.17 140.584C187.41 140.584 190.507 139.38 192.978 137.276C227.199 108.132 271.478 90.512 319.795 90.512C362.254 90.512 402.585 103.844 436.523 129.088C454.474 142.44 479.652 142.332 495.831 126.88C516.623 107.024 514.025 74.288 492.096 57.72C442.114 19.956 382.531 0 319.791 0C224.37 0 139.732 47.024 87.6472 119.14C81.198 128.068 87.7151 140.588 98.7139 140.588L184.17 140.584Z" fill="url(#paint1_linear_200_6786)"/>
<mask id="mask0_200_6786" style="mask-type:luminance" maskUnits="userSpaceOnUse" x="85" y="0" width="426" height="141">
<path d="M184.17 140.584C187.41 140.584 190.507 139.38 192.978 137.276C227.199 108.132 271.478 90.512 319.795 90.512C362.253 90.512 402.585 103.844 436.523 129.088C454.474 142.44 479.652 142.332 495.831 126.88C516.623 107.024 514.025 74.288 492.096 57.72C442.114 19.956 382.531 0 319.791 0C224.37 0 139.732 47.024 87.6472 119.14C81.198 128.068 87.7151 140.588 98.7139 140.588L184.17 140.584Z" fill="white"/>
</mask>
<g mask="url(#mask0_200_6786)">
<path fill-rule="evenodd" clip-rule="evenodd" d="M442.552 12.3941C442.552 12.3941 323.164 10.9866 259.773 48.5202C193.718 87.6293 188.961 158.673 188.961 158.673L158.587 178.916C158.587 178.916 62.099 176.015 70.2923 173.332C78.481 170.645 84.0699 95.2801 89.6374 93.7168C95.2094 92.1576 121.179 36.0419 134.864 28.8001C148.548 21.5536 265.911 -11.5099 265.911 -11.5099L442.552 12.3941Z" fill="url(#paint2_linear_200_6786)"/>
</g>
<path d="M713.472 190.504C695.437 173.244 666.859 173.896 649.63 191.98C640.591 201.468 623.518 222.86 594.122 259.852C548.307 317.504 471.623 413.988 441.647 438.164C412.303 461.84 377.223 483.752 319.795 483.752C262.658 483.752 211.188 459.108 175.306 419.904C172.7 417.056 169.072 415.364 165.213 415.364H86.5935C76.0617 415.364 69.4808 426.932 74.9562 435.948C125.257 518.796 216.16 574.268 319.791 574.268C405.917 574.268 460.416 539.216 498.265 508.68C533.185 480.512 594.325 404.864 664.756 316.244C686.143 289.328 708.26 261.496 714.941 254.488C732.161 236.416 731.507 207.768 713.472 190.504Z" fill="url(#paint3_linear_200_6786)"/>
<mask id="mask1_200_6786" style="mask-type:luminance" maskUnits="userSpaceOnUse" x="72" y="177" width="656" height="398">
<path d="M713.472 190.504C695.437 173.244 666.859 173.896 649.63 191.98C640.591 201.468 623.518 222.86 594.122 259.852C548.307 317.504 471.623 413.988 441.647 438.164C412.303 461.84 377.223 483.752 319.795 483.752C262.658 483.752 211.188 459.108 175.306 419.904C172.7 417.056 169.072 415.364 165.213 415.364H86.5935C76.0617 415.364 69.4808 426.932 74.9562 435.948C125.257 518.796 216.16 574.268 319.791 574.268C405.917 574.268 460.416 539.216 498.265 508.68C533.185 480.512 594.325 404.864 664.756 316.244C686.143 289.328 708.26 261.496 714.941 254.488C732.161 236.416 731.507 207.768 713.472 190.504Z" fill="white"/>
</mask>
<g mask="url(#mask1_200_6786)">
<path fill-rule="evenodd" clip-rule="evenodd" d="M395.975 573.297C329.427 598.989 276.978 602.116 160.281 568.753C94.2185 549.868 -13.2935 428.745 -13.2935 428.745L661.062 177.656C661.062 177.656 650.819 199.571 633.437 234.114C586.336 327.716 496.032 534.665 395.975 573.297Z" fill="url(#paint4_linear_200_6786)"/>
</g>
<path d="M977.937 405.948C1038.36 405.948 1087.34 356.856 1087.34 296.292C1087.34 235.732 1038.36 186.636 977.937 186.636C917.516 186.636 868.532 235.732 868.532 296.292C868.532 356.856 917.516 405.948 977.937 405.948Z" fill="url(#paint5_linear_200_6786)"/>
<path d="M904.579 432.004C901.338 432.004 898.242 433.208 895.771 435.312C861.55 464.456 817.271 482.076 768.954 482.076C726.495 482.076 686.168 468.744 652.226 443.5C634.275 430.148 609.097 430.256 592.914 445.712C572.121 465.568 574.719 498.304 596.649 514.872C646.631 552.632 706.214 572.592 768.954 572.592C803.97 572.592 837.529 566.26 868.566 554.68C922.107 534.704 968.125 499.104 1001.1 453.448C1007.55 444.52 1001.03 432 990.031 432L904.579 432.004Z" fill="#003778"/>
<mask id="mask2_200_6786" style="mask-type:luminance" maskUnits="userSpaceOnUse" x="578" y="432" width="426" height="141">
<path d="M904.579 432.004C901.338 432.004 898.242 433.208 895.771 435.312C861.55 464.456 817.271 482.076 768.954 482.076C726.495 482.076 686.168 468.744 652.226 443.5C634.275 430.148 609.097 430.256 592.914 445.712C572.121 465.568 574.719 498.304 596.649 514.872C646.631 552.632 706.214 572.592 768.954 572.592C803.97 572.592 837.529 566.26 868.566 554.68C922.107 534.704 968.125 499.104 1001.1 453.448C1007.55 444.52 1001.03 432 990.031 432L904.579 432.004Z" fill="white"/>
</mask>
<g mask="url(#mask2_200_6786)">
<path fill-rule="evenodd" clip-rule="evenodd" d="M627.258 546.261C627.258 546.261 745.575 562.246 813.036 532.72C883.331 501.954 896.66 431.986 896.66 431.986L929.258 415.595C929.258 415.595 1024.67 430.266 1016.21 431.929C1007.76 433.597 993.079 507.754 987.364 508.627C981.646 509.494 949.072 562.046 934.613 567.566C920.155 573.09 799.671 591.582 799.671 591.582L627.258 546.261Z" fill="url(#paint6_linear_200_6786)" stroke="#003778" stroke-width="0.993339" stroke-miterlimit="1.5" stroke-linecap="round" stroke-linejoin="round"/>
</g>
<path d="M373.871 383.764C391.905 401.024 420.484 400.372 437.712 382.288C446.752 372.8 463.825 351.408 493.221 314.416C539.036 256.764 615.72 160.28 645.695 136.104C675.04 112.428 710.12 90.516 767.548 90.516C789.178 90.516 809.995 94.048 829.458 100.564C861.417 111.26 889.736 130 912.037 154.364C914.643 157.212 918.27 158.904 922.13 158.904H1000.75C1011.28 158.904 1017.86 147.336 1012.38 138.32C962.082 55.472 871.178 0 767.548 0C681.422 0 626.923 35.052 589.073 65.588C554.153 93.756 493.014 169.404 422.583 258.024C401.196 284.94 379.079 312.772 372.398 319.78C355.182 337.852 355.836 366.5 373.871 383.764Z" fill="url(#paint7_linear_200_6786)"/>
<mask id="mask3_200_6786" style="mask-type:luminance" maskUnits="userSpaceOnUse" x="359" y="0" width="656" height="397">
<path d="M589.387 65.9772L589.073 65.588L589.387 65.9771C627.189 35.4796 681.579 0.5 767.548 0.5C870.995 0.5 961.741 55.8736 1011.96 138.58C1017.23 147.259 1010.89 158.404 1000.75 158.404H922.13C918.419 158.404 914.923 156.777 912.406 154.026L912.037 154.364L912.406 154.026C890.049 129.601 861.658 110.813 829.617 100.09C810.103 93.557 789.233 90.016 767.548 90.016C709.963 90.016 674.775 112 645.382 135.715C630.347 147.84 603.649 178.049 575.014 212.386C546.365 246.741 515.737 285.28 492.83 314.105C463.423 351.109 446.37 372.476 437.35 381.943C420.313 399.827 392.051 400.472 374.217 383.403C356.381 366.33 355.734 337.997 372.76 320.125C379.461 313.096 401.6 285.235 422.975 258.335C458.19 214.025 491.078 172.964 519.526 139.46C547.981 105.948 571.969 80.0279 589.387 65.9772Z" fill="white" stroke="white"/>
</mask>
<g mask="url(#mask3_200_6786)">
<path fill-rule="evenodd" clip-rule="evenodd" d="M703.851 34.9025C770.111 13.4905 821.745 12.3185 935.244 46.6905C999.497 66.1465 1100.96 180.71 1100.96 180.71L429.843 389.194C429.843 389.194 440.658 369.426 458.921 338.306C508.407 253.982 604.227 67.0985 703.851 34.9025Z" fill="url(#paint8_linear_200_6786)" stroke="#003778" stroke-miterlimit="1.5" stroke-linecap="round" stroke-linejoin="round"/>
</g>
<path d="M942.37 158.075C823.206 2.43192 659.051 70.5258 595.821 186.042C718.633 53.5023 871.845 102.546 911.971 158.075L942.37 158.075Z" fill="url(#paint9_linear_200_6786)" fill-opacity="0.34"/>
<path d="M141.052 417.075C260.216 572.718 424.371 504.624 487.601 389.108C364.788 521.647 211.577 472.604 171.451 417.075L141.052 417.075Z" fill="url(#paint10_linear_200_6786)" fill-opacity="0.34"/>
<defs>
<linearGradient id="paint0_linear_200_6786" x1="59.5821" y1="223.737" x2="92.4131" y2="418.291" gradientUnits="userSpaceOnUse">
<stop stop-color="#01BCE4"/>
<stop offset="1" stop-color="#7FE2F7"/>
</linearGradient>
<linearGradient id="paint1_linear_200_6786" x1="296.695" y1="47.4225" x2="401.297" y2="141.019" gradientUnits="userSpaceOnUse">
<stop stop-color="#01BCE4"/>
<stop offset="1" stop-color="#009FC1"/>
</linearGradient>
<linearGradient id="paint2_linear_200_6786" x1="265.061" y1="165.814" x2="243.58" y2="-8.76223" gradientUnits="userSpaceOnUse">
<stop stop-color="#56CCF2"/>
<stop offset="1" stop-color="#7FE2F7"/>
</linearGradient>
<linearGradient id="paint3_linear_200_6786" x1="400.211" y1="177.976" x2="400.211" y2="574.268" gradientUnits="userSpaceOnUse">
<stop stop-color="#56CCF2"/>
<stop offset="1" stop-color="#7FE2F7"/>
</linearGradient>
<linearGradient id="paint4_linear_200_6786" x1="159.348" y1="343.316" x2="312.573" y2="236.302" gradientUnits="userSpaceOnUse">
<stop stop-color="#278AB8"/>
<stop offset="0.931157" stop-color="#00BCE4"/>
</linearGradient>
<linearGradient id="paint5_linear_200_6786" x1="954.79" y1="222.434" x2="1016.83" y2="210.455" gradientUnits="userSpaceOnUse">
<stop stop-color="#004EA9"/>
<stop offset="1" stop-color="#0062D4"/>
</linearGradient>
<linearGradient id="paint6_linear_200_6786" x1="822" y1="415.595" x2="728.488" y2="541.828" gradientUnits="userSpaceOnUse">
<stop stop-color="#0062D4"/>
<stop offset="1" stop-color="#00428F"/>
</linearGradient>
<linearGradient id="paint7_linear_200_6786" x1="687.129" y1="1.36497e-05" x2="410.207" y2="395.404" gradientUnits="userSpaceOnUse">
<stop stop-color="#003778"/>
<stop offset="1" stop-color="#003A7F"/>
</linearGradient>
<linearGradient id="paint8_linear_200_6786" x1="694.407" y1="79.9999" x2="870.093" y2="18.2521" gradientUnits="userSpaceOnUse">
<stop stop-color="#00499E"/>
<stop offset="1" stop-color="#0062D4"/>
</linearGradient>
<linearGradient id="paint9_linear_200_6786" x1="769.096" y1="67.2964" x2="769.096" y2="186.042" gradientUnits="userSpaceOnUse">
<stop stop-color="#F9F9F9"/>
<stop offset="1" stop-color="#F9F9F9" stop-opacity="0"/>
</linearGradient>
<linearGradient id="paint10_linear_200_6786" x1="314.326" y1="507.853" x2="314.326" y2="389.108" gradientUnits="userSpaceOnUse">
<stop stop-color="#F9F9F9"/>
<stop offset="1" stop-color="#F9F9F9" stop-opacity="0"/>
</linearGradient>
</defs>
</svg>
